<svg width="19" height="18" viewBox="0 0 19 18" fill="none" xmlns="http://www.w3.org/2000/svg">
<path d="M9.33085 1.61684C11.7362 1.61684 12.015 1.6248 12.9628 1.67259C13.8389 1.71241 14.3168 1.85578 14.6354 1.98321C15.0575 2.14251 15.3522 2.34163 15.6708 2.65225C15.9894 2.97084 16.1805 3.26553 16.3398 3.68766C16.4593 4.00625 16.6106 4.48413 16.6504 5.36025C16.6903 6.30805 16.7062 6.59479 16.7062 8.99217C16.7062 11.3895 16.6982 11.6763 16.6504 12.6241C16.6106 13.5002 16.4672 13.9781 16.3398 14.2967C16.1805 14.7188 15.9814 15.0135 15.6708 15.3321C15.3601 15.6507 15.0575 15.8418 14.6354 16.0011C14.3168 16.1206 13.8389 16.2719 12.9628 16.3117C12.015 16.3516 11.7282 16.3675 9.33085 16.3675C6.93347 16.3675 6.64674 16.3595 5.69894 16.3117C4.82282 16.2719 4.34494 16.1286 4.02635 16.0011C3.60422 15.8418 3.30952 15.6427 2.99094 15.3321C2.67235 15.0135 2.48119 14.7188 2.3219 14.2967C2.20243 13.9781 2.0511 13.5002 2.01128 12.6241C1.97145 11.6763 1.95552 11.3895 1.95552 8.99217C1.95552 6.59479 1.96349 6.30805 2.01128 5.36025C2.0511 4.48413 2.19446 4.00625 2.3219 3.68766C2.48119 3.26553 2.68031 2.97084 2.99094 2.65225C3.30952 2.33366 3.60422 2.14251 4.02635 1.98321C4.34494 1.86374 4.82282 1.71241 5.69894 1.67259C6.64674 1.63277 6.93347 1.61684 9.33085 1.61684ZM9.33085 0C6.88568 0 6.58302 0.00796448 5.61929 0.0557528C4.66353 0.0955764 4.01042 0.25487 3.43696 0.477882C2.84757 0.708859 2.34579 1.01152 1.84402 1.5133C1.34224 2.01508 1.03958 2.51685 0.808603 3.10624C0.58559 3.6797 0.43426 4.33281 0.394437 5.28857C0.346649 6.24434 0.338684 6.55496 0.338684 9.00013C0.338684 11.4453 0.346649 11.748 0.394437 12.7117C0.43426 13.6675 0.593555 14.3206 0.808603 14.894C1.03958 15.4834 1.34224 15.9852 1.84402 16.487C2.34579 16.9887 2.84757 17.2914 3.43696 17.5224C4.01042 17.7454 4.66353 17.8967 5.61929 17.9445C6.57506 17.9843 6.88568 18.0003 9.33085 18.0003C11.776 18.0003 12.0787 17.9923 13.0424 17.9445C13.9982 17.9047 14.6513 17.7454 15.2247 17.5224C15.8141 17.2914 16.3159 16.9887 16.8177 16.487C17.3195 15.9852 17.6221 15.4834 17.8531 14.894C18.0761 14.3206 18.2274 13.6675 18.2673 12.7117C18.3071 11.7559 18.323 11.4453 18.323 9.00013C18.323 6.55496 18.3151 6.2523 18.2673 5.28857C18.2274 4.33281 18.0681 3.6797 17.8531 3.10624C17.6221 2.51685 17.3195 2.01508 16.8177 1.5133C16.3159 1.01152 15.8141 0.708859 15.2247 0.477882C14.6513 0.25487 13.9982 0.103541 13.0424 0.0557528C12.0866 0.0159292 11.776 0 9.33085 0Z" fill="white"/>
<path d="M9.33084 4.37268C6.78213 4.37268 4.7113 6.44351 4.7113 8.99222C4.7113 11.5409 6.78213 13.6118 9.33084 13.6118C11.8796 13.6118 13.9504 11.5409 13.9504 8.99222C13.9504 6.44351 11.8796 4.37268 9.33084 4.37268ZM9.33084 11.9869C7.67418 11.9869 6.33611 10.6409 6.33611 8.99222C6.33611 7.34352 7.68214 5.99748 9.33084 5.99748C10.9795 5.99748 12.3256 7.34352 12.3256 8.99222C12.3256 10.6409 10.9795 11.9869 9.33084 11.9869Z" fill="white"/>
<path d="M15.2088 4.1894C15.2088 4.78676 14.7229 5.27261 14.1256 5.27261C13.5282 5.27261 13.0424 4.78676 13.0424 4.1894C13.0424 3.59205 13.5282 3.1062 14.1256 3.1062C14.7229 3.1062 15.2088 3.59205 15.2088 4.1894Z" fill="white"/>
</svg>
