<svg width="14" height="14" viewBox="0 0 14 14" fill="none" xmlns="http://www.w3.org/2000/svg">
<path d="M6.65383 1.33249C6.78193 1.02451 7.21822 1.02451 7.34632 1.33249L8.76364 4.74013C8.81764 4.86997 8.93975 4.95868 9.07992 4.96992L12.7587 5.26485C13.0912 5.2915 13.2261 5.70644 12.9727 5.92344L10.1699 8.32441C10.0631 8.41589 10.0164 8.55943 10.049 8.69622L10.9054 12.2861C10.9828 12.6106 10.6298 12.867 10.3451 12.6932L7.19555 10.7694C7.07554 10.6961 6.92461 10.6961 6.80461 10.7694L3.65501 12.6932C3.37035 12.867 3.01738 12.6106 3.09478 12.2861L3.9511 8.69622C3.98373 8.55943 3.93709 8.41589 3.8303 8.32441L1.02742 5.92344C0.774089 5.70644 0.908911 5.2915 1.24141 5.26485L4.92024 4.96992C5.06041 4.95868 5.18251 4.86997 5.23652 4.74013L6.65383 1.33249Z" stroke="black" stroke-opacity="0.87" stroke-linecap="round" stroke-linejoin="round"/>
</svg>
