<svg width="18" height="14" viewBox="0 0 18 14" fill="none" xmlns="http://www.w3.org/2000/svg">
<path d="M0.353985 12.4147C1.91563 13.4191 3.77547 13.9999 5.76872 13.9999C12.3292 13.9999 16.0332 8.45955 15.8135 3.48427C16.504 2.98988 17.1004 2.36208 17.5791 1.65581C16.9435 1.93832 16.2608 2.12666 15.5466 2.21299C16.2765 1.77353 16.8336 1.08295 17.1004 0.258967C16.4177 0.667035 15.6644 0.957393 14.8561 1.11434C14.2126 0.423767 13.2944 0 12.2743 0C9.99065 0 8.31915 2.12666 8.82923 4.33964C5.89429 4.19054 3.28892 2.78585 1.54679 0.643497C0.62079 2.22868 1.06809 4.30825 2.63758 5.35981C2.05687 5.34411 1.5154 5.17932 1.03671 4.92035C0.997472 6.56047 2.17459 8.09072 3.86964 8.42816C3.37525 8.56157 2.82593 8.59296 2.27661 8.49094C2.72391 9.89564 4.03443 10.9158 5.58038 10.9472C4.09721 12.1086 2.22167 12.6344 0.34613 12.4068L0.353985 12.4147Z" fill="white"/>
</svg>
